<?xml version="1.0" encoding="utf-8"?>
<!-- Generator: Adobe Illustrator 22.1.0, SVG Export Plug-In . SVG Version: 6.00 Build 0)  -->
<svg version="1.1" id="圖層_1" xmlns="http://www.w3.org/2000/svg" xmlns:xlink="http://www.w3.org/1999/xlink" x="0px" y="0px"
	 viewBox="0 0 89.6 105" style="enable-background:new 0 0 89.6 105;" xml:space="preserve">
<style type="text/css">
	.st0{fill:#F0B180;}
</style>
<g>
	<g>
		<g>
			<rect x="27.9" y="6.9" class="st0" width="8" height="50.2"/>
			<path class="st0" d="M62.7,6.9h-8v2h0c3.3,0,6,2.7,6,6v0h2V6.9z"/>
			<path class="st0" d="M62.7,57.1v-8h-2v0c0,3.3-2.7,6-6,6h0v2H62.7z"/>
			<path class="st0" d="M54.7,25.1h-2v0c0,3.3-2.7,6-6,6v0v2v0h0c3.3,0,6,2.7,6,6h2L54.7,25.1z"/>
		</g>
		<g>
			<path class="st0" d="M18.6,86.1c0-0.1-0.1-0.1-0.1-0.2c-1-2.4-1.9-4.8-2.6-6.9l0-0.1l-2.8,0l0.1,0.2c0.7,1.4,1.1,2.5,1.4,3.1
				c0.9,2.3,1.7,4,2.2,5.3l0.6,1.5l-2.5,5.8h2l6.9-15.8h-2.1L18.6,86.1z"/>
			<rect x="52" y="74.1" class="st0" width="2.5" height="15.7"/>
			<g>
				<path class="st0" d="M61.2,74.9c-0.3,0-0.6,0.1-0.9,0.4c-0.2,0.2-0.4,0.6-0.4,0.9c0,0.3,0.1,0.6,0.4,0.9
					c0.2,0.2,0.5,0.4,0.9,0.4c0.4,0,0.7-0.1,0.9-0.4c0.2-0.2,0.4-0.5,0.4-0.9c0-0.4-0.1-0.7-0.4-0.9C61.9,75,61.6,74.9,61.2,74.9z"
					/>
				<rect x="59.9" y="79.4" class="st0" width="2.4" height="10.4"/>
			</g>
			<path class="st0" d="M31.4,79c-1.7,0-3,0.5-3.9,1.6c-0.8,1-1.3,2.3-1.3,3.8c0,1.6,0.5,3,1.4,3.9c0.9,1,2.2,1.4,3.8,1.4
				c1.7,0,3-0.5,4-1.4l0,0l-0.1-1.8l-0.2,0.3c-0.8,1.1-1.9,1.6-3.2,1.6c-1.3,0-2.2-0.5-2.8-1.6c-0.3-0.6-0.5-1.4-0.5-2.5h7.5l0-0.1
				c0-1.8-0.4-3.2-1.2-4.1C34,79.5,32.9,79,31.4,79z M28.6,83.3c0.2-2.1,1.1-3.1,2.7-3.1c1.6,0,2.3,1,2.4,3.1H28.6z"/>
			<polygon class="st0" points="0.5,89.8 8.7,89.8 8.7,88.1 3.2,88.1 3.2,82.5 8.3,82.5 8.3,80.8 3.2,80.8 3.2,76.1 8.7,76.1 
				8.7,74.4 0.5,74.4 			"/>
			<path class="st0" d="M46.3,84.1L46.3,84.1c-0.4-0.3-1.2-0.6-2.4-0.9c-1.2-0.3-1.9-0.9-1.9-1.7c0-0.4,0.2-0.8,0.5-1
				c0.3-0.3,0.8-0.4,1.3-0.4c0.5,0,1,0.1,1.3,0.3c0.1,0,0.1,0.1,0.2,0.1l0,0c0,0,0,0,0,0c0.1,0.1,0.1,0.1,0.2,0.2c0,0,0,0,0,0.1
				c0.2,0.2,0.4,0.6,0.5,1.1l0.8-2.2l-0.1-0.1c-0.9-0.5-1.8-0.7-2.8-0.7c-1.3,0-2.3,0.4-3,1.1c-0.5,0.6-0.8,1.3-0.8,2.1
				c0,1.4,0.8,2.4,2.5,2.9c1.2,0.4,1.9,0.7,2.2,0.9c0.4,0.3,0.6,0.6,0.6,1.1c0,0.5-0.2,0.9-0.6,1.2c-0.4,0.3-0.9,0.4-1.4,0.4
				c-0.5,0-1-0.1-1.5-0.4c-0.3-0.2-0.6-0.4-0.7-0.7c-0.1-0.1-0.2-0.3-0.3-0.6l-0.1-0.3L40,88.9l0.1,0.1c0.8,0.6,1.9,0.9,3.1,0.9
				c1.4,0,2.4-0.4,3.2-1.1c0.6-0.6,1-1.4,1-2.4C47.3,85.3,47,84.6,46.3,84.1z"/>
			<polygon class="st0" points="76.6,79.4 76.2,79.4 74.6,79.4 74.5,79.4 74.2,80 71.5,86.6 68.8,79.4 67.4,79.4 66.3,79.4 66,79.4 
				66.4,80.4 70.2,89.5 70.2,89.5 70.3,89.8 70.5,89.8 70.7,89.8 71.6,89.8 71.9,89.8 72.1,89.8 72.2,89.5 76.4,79.8 			"/>
			<path class="st0" d="M84.2,79c-1.7,0-3,0.5-3.9,1.6c-0.8,1-1.3,2.3-1.3,3.8c0,1.6,0.5,3,1.4,3.9c0.9,1,2.2,1.4,3.8,1.4
				c1.7,0,3-0.5,4-1.4l0,0l-0.1-1.8L88,86.9c-0.8,1.1-1.9,1.6-3.2,1.6c-1.3,0-2.2-0.5-2.8-1.6c-0.3-0.6-0.5-1.4-0.5-2.5h7.5l0-0.1
				c0-1.8-0.4-3.2-1.2-4.1C86.9,79.5,85.7,79,84.2,79z M81.5,83.3c0.2-2.1,1.1-3.1,2.7-3.1c1.6,0,2.3,1,2.4,3.1H81.5z"/>
		</g>
		<path class="st0" d="M3.7,100c-0.1,0.1-0.1,0.1-0.2,0.2c-0.1,0.1-0.2,0.1-0.3,0.1c-0.1,0-0.2,0.1-0.3,0.1c-0.1,0-0.2,0-0.3,0
			c-0.2,0-0.3,0-0.5-0.1c-0.2-0.1-0.3-0.2-0.4-0.3c-0.1-0.1-0.2-0.3-0.3-0.5c-0.1-0.2-0.1-0.4-0.1-0.7c0-0.3,0-0.5,0.1-0.8
			c0.1-0.2,0.2-0.4,0.3-0.5c0.1-0.1,0.3-0.2,0.4-0.3c0.2-0.1,0.3-0.1,0.4-0.1c0.2,0,0.4,0,0.5,0.1c0.1,0.1,0.3,0.2,0.4,0.4h0L3.8,97
			c-0.1,0-0.1-0.1-0.2-0.1c-0.1,0-0.2-0.1-0.3-0.1c-0.1,0-0.2,0-0.3-0.1c-0.1,0-0.2,0-0.3,0c-0.3,0-0.6,0-0.8,0.1
			c-0.3,0.1-0.5,0.2-0.7,0.4c-0.2,0.2-0.4,0.4-0.5,0.7c-0.1,0.3-0.2,0.6-0.2,1c0,0.3,0,0.5,0.1,0.7c0.1,0.2,0.2,0.4,0.4,0.6
			c0.2,0.2,0.4,0.3,0.6,0.4c0.3,0.1,0.5,0.1,0.9,0.1c0.2,0,0.4,0,0.6-0.1c0.2,0,0.4-0.1,0.5-0.2L3.7,100z"/>
		<path class="st0" d="M10.4,99.7c-0.2-0.3-0.4-0.6-0.6-0.9c0.3-0.1,0.5-0.2,0.6-0.4c0.1-0.2,0.2-0.4,0.2-0.7c0-0.2,0-0.3-0.1-0.4
			c-0.1-0.1-0.1-0.2-0.2-0.2c-0.2-0.2-0.7-0.2-1.2-0.3c-0.5,0-1.1,0-1.1,0v3.8H9c0,0,0,0,0,0c0-0.1,0-0.2,0-0.4c0-0.1,0-0.2,0-0.4
			c0-0.1,0-0.3,0-0.4s0-0.3,0-0.4v-0.2h0l1,1.8h1C10.8,100.3,10.6,100,10.4,99.7z M9,98.6C9,98.6,9,98.6,9,98.6c-0.1,0-0.1,0-0.1,0
			c0-0.5,0-1,0-1.5c0.2,0,0.3,0,0.4,0c0.1,0,0.2,0,0.3,0.1c0.1,0,0.1,0.1,0.2,0.2c0,0.1,0.1,0.2,0.1,0.4c0,0.3-0.1,0.5-0.2,0.6
			S9.3,98.6,9,98.6z"/>
		<path class="st0" d="M15.9,97.3h1.3v-0.5H15v3.8h2.2v-0.5h0c0,0,0,0,0,0c0,0,0,0,0,0h-1.2v-1.3h1.2v-0.5h-1.2L15.9,97.3
			C15.9,97.3,15.9,97.3,15.9,97.3z"/>
		<path class="st0" d="M23.7,100.6h1l-1.5-3.9h-0.4l-1.6,3.9h0.5l0.4-1.1h1.2L23.7,100.6z M22.7,97.8l0.5,1.3h-1L22.7,97.8z"/>
		<polygon class="st0" points="31,96.8 28.2,96.8 28.2,97.3 29.2,97.3 29.2,100.6 30.1,100.6 30.1,97.3 31,97.3 		"/>
		<rect x="35.2" y="96.8" class="st0" width="0.9" height="3.8"/>
		<path class="st0" d="M48.9,97.3h1.3v-0.5H48v3.8h2.2v-0.5h0c0,0,0,0,0,0c0,0,0,0,0,0h-1.2v-1.3h1.2v-0.5h-1.2L48.9,97.3
			C48.9,97.3,48.9,97.3,48.9,97.3z"/>
		<path class="st0" d="M74.6,100.6h1L74,96.8h-0.4l-1.6,3.9h0.5l0.4-1.1h1.2L74.6,100.6z M73.6,97.8l0.5,1.3h-1L73.6,97.8z"/>
		<path class="st0" d="M82.5,100c-0.1,0.1-0.1,0.1-0.2,0.2c-0.1,0.1-0.2,0.1-0.3,0.1c-0.1,0-0.2,0.1-0.3,0.1c-0.1,0-0.2,0-0.3,0
			c-0.2,0-0.3,0-0.5-0.1c-0.2-0.1-0.3-0.2-0.4-0.3c-0.1-0.1-0.2-0.3-0.3-0.5c-0.1-0.2-0.1-0.4-0.1-0.7c0-0.3,0-0.5,0.1-0.8
			c0.1-0.2,0.2-0.4,0.3-0.5c0.1-0.1,0.3-0.2,0.4-0.3c0.2-0.1,0.3-0.1,0.4-0.1c0.2,0,0.4,0,0.5,0.1c0.1,0.1,0.3,0.2,0.4,0.4h0
			l0.2-0.6c-0.1,0-0.1-0.1-0.2-0.1c-0.1,0-0.2-0.1-0.3-0.1c-0.1,0-0.2,0-0.3-0.1c-0.1,0-0.2,0-0.3,0c-0.3,0-0.6,0-0.8,0.1
			c-0.3,0.1-0.5,0.2-0.7,0.4c-0.2,0.2-0.4,0.4-0.5,0.7c-0.1,0.3-0.2,0.6-0.2,1c0,0.3,0,0.5,0.1,0.7c0.1,0.2,0.2,0.4,0.4,0.6
			c0.2,0.2,0.4,0.3,0.6,0.4c0.3,0.1,0.5,0.1,0.9,0.1c0.2,0,0.4,0,0.6-0.1c0.2,0,0.4-0.1,0.5-0.2L82.5,100z"/>
		<path class="st0" d="M87.7,97.3h1.3v-0.5h-2.2v3.8h2.2v-0.5h0c0,0,0,0,0,0c0,0,0,0,0,0h-1.2v-1.3h1.2v-0.5h-1.2L87.7,97.3
			C87.7,97.3,87.7,97.3,87.7,97.3z"/>
		<polygon class="st0" points="43.4,96.8 42.3,99.6 41.3,96.8 40.4,96.8 41.9,100.6 42.4,100.6 43.9,96.8 		"/>
		<path class="st0" d="M61.6,98.9c-0.1-0.1-0.2-0.3-0.3-0.3c-0.1-0.1-0.3-0.2-0.4-0.2c-0.1-0.1-0.3-0.1-0.4-0.2
			c-0.1-0.1-0.2-0.1-0.3-0.2c-0.1-0.1-0.1-0.2-0.1-0.3c0-0.1,0.1-0.3,0.2-0.4c0.1-0.1,0.2-0.2,0.4-0.2c0.3,0,0.5,0.2,0.7,0.5
			l0.3-0.5c-0.1-0.1-0.2-0.2-0.4-0.2c-0.2,0-0.3-0.1-0.5-0.1c-0.2,0-0.3,0-0.5,0.1c-0.2,0.1-0.3,0.1-0.4,0.2
			c-0.1,0.1-0.2,0.2-0.3,0.4c-0.1,0.1-0.1,0.3-0.1,0.5c0,0.2,0,0.4,0.1,0.5c0.1,0.1,0.2,0.3,0.3,0.3c0.1,0.1,0.3,0.2,0.4,0.2
			c0.1,0.1,0.3,0.1,0.4,0.2c0.1,0.1,0.2,0.1,0.3,0.2c0.1,0.1,0.1,0.2,0.1,0.3c0,0.2-0.1,0.3-0.2,0.4c-0.1,0.1-0.3,0.2-0.5,0.2
			c-0.1,0-0.2,0-0.3,0c-0.1,0-0.2-0.1-0.2-0.1c-0.1-0.1-0.1-0.1-0.2-0.2c0-0.1-0.1-0.1-0.1-0.2c0,0.1-0.2,0.4-0.3,0.7
			c0.1,0.1,0.2,0.1,0.3,0.2c0.2,0,0.3,0.1,0.5,0.1c0.2,0,0.4,0,0.6-0.1c0.2-0.1,0.3-0.1,0.5-0.3c0.1-0.1,0.2-0.2,0.3-0.4
			c0.1-0.2,0.1-0.3,0.1-0.5C61.7,99.2,61.7,99.1,61.6,98.9z"/>
		<path class="st0" d="M68.4,97.4c-0.1-0.1-0.1-0.2-0.3-0.3c-0.1-0.1-0.2-0.1-0.4-0.2c-0.1,0-0.3,0-0.5-0.1c0,0,0,0,0,0
			c-0.2,0-1,0-1,0h-0.4v3.8h0.9V99h0.2c0.2,0,0.4,0,0.6-0.1c0.2,0,0.3-0.1,0.5-0.2c0.1-0.1,0.2-0.2,0.3-0.4c0.1-0.2,0.1-0.3,0.1-0.5
			C68.5,97.6,68.5,97.5,68.4,97.4z M67.6,98.3c-0.1,0.1-0.1,0.2-0.2,0.2c-0.1,0.1-0.2,0.1-0.3,0.1c-0.1,0-0.2,0-0.2,0v-1.6
			c0,0,0,0,0.1,0c0,0,0.1,0,0.1,0c0.1,0,0.2,0,0.2,0c0.1,0,0.1,0.1,0.2,0.1c0.1,0.1,0.1,0.1,0.1,0.2c0,0.1,0,0.2,0,0.4
			C67.7,98,67.6,98.2,67.6,98.3z"/>
	</g>
</g>
</svg>
